# xmcd
#
# Track frame offsets:
#	150
#	16884
#	36214
#	61365
#	77973
#	97469
#	117299
#	132209
#	156793
#	172364
#
# Disc length: 2532 seconds
#
# Revision: 0
# Processed by: cddbd v1.5.2PL0 Copyright (c) Steve Scherf et al.
# Submitted via: EasyCDDAExtractor 10.2.0.1
#
DISCID=8b09e20a
DTITLE=Ira Kaspi - Monrepos in my heritage
DYEAR=1900
DGENRE=
TTITLE0=Monrepos
TTITLE1=Distant memories
TTITLE2=Ters will dry in time
TTITLE3=Take me for a Ride
TTITLE4=Why Call it a night
TTITLE5=Angels
TTITLE6=Soft whisper
TTITLE7=My love
TTITLE8=Hitch_Hiking Randez-Vous
TTITLE9=In time I'll Fall I Love Again
EXTD=
EXTT0=
EXTT1=
EXTT2=
EXTT3=
EXTT4=
EXTT5=
EXTT6=
EXTT7=
EXTT8=
EXTT9=
PLAYORDER=
